<svg xmlns="http://www.w3.org/2000/svg" xmlns:xlink="http://www.w3.org/1999/xlink" id="processonSvg1000" viewBox="24.333328247070312 83.66666412353516 1162.0 849.000002861023" width="1162.0" height="849.000002861023"><defs id="ProcessOnDefs1001"><marker id="ProcessOnMarker1019" markerUnits="userSpaceOnUse" orient="auto" markerWidth="16.23606797749979" markerHeight="10.550836550532098" viewBox="-1.0 -1.3763819204711736 16.23606797749979 10.550836550532098" refX="-1.0" refY="3.8990363547948754"><path id="ProcessOnPath1020" d="M12.0 3.8990363547948754L0.0 7.798072709589751V0.0Z" stroke="#323232" stroke-width="2.0" fill="#323232" transform="matrix(1.0,0.0,0.0,1.0,0.0,0.0)"/></marker><marker id="ProcessOnMarker1023" markerUnits="userSpaceOnUse" orient="auto" markerWidth="16.23606797749979" markerHeight="10.550836550532098" viewBox="-1.0 -1.3763819204711736 16.23606797749979 10.550836550532098" refX="-1.0" refY="3.8990363547948754"><path id="ProcessOnPath1024" d="M12.0 3.8990363547948754L0.0 7.798072709589751V0.0Z" stroke="#323232" stroke-width="2.0" fill="#323232" transform="matrix(1.0,0.0,0.0,1.0,0.0,0.0)"/></marker><marker id="ProcessOnMarker1034" markerUnits="userSpaceOnUse" orient="auto" markerWidth="16.23606797749979" markerHeight="10.550836550532098" viewBox="-1.0 -1.3763819204711736 16.23606797749979 10.550836550532098" refX="-1.0" refY="3.8990363547948754"><path id="ProcessOnPath1035" d="M12.0 3.8990363547948754L0.0 7.798072709589751V0.0Z" stroke="#cc0000" stroke-width="2.0" fill="#cc0000" transform="matrix(1.0,0.0,0.0,1.0,0.0,0.0)"/></marker><marker id="ProcessOnMarker1041" markerUnits="userSpaceOnUse" orient="auto" markerWidth="16.23606797749979" markerHeight="10.550836550532098" viewBox="-1.0 -1.3763819204711736 16.23606797749979 10.550836550532098" refX="-1.0" refY="3.8990363547948754"><path id="ProcessOnPath1042" d="M12.0 3.8990363547948754L0.0 7.798072709589751V0.0Z" stroke="#cc0000" stroke-width="2.0" fill="#cc0000" transform="matrix(1.0,0.0,0.0,1.0,0.0,0.0)"/></marker><marker id="ProcessOnMarker1052" markerUnits="userSpaceOnUse" orient="auto" markerWidth="16.23606797749979" markerHeight="10.550836550532098" viewBox="-1.0 -1.3763819204711736 16.23606797749979 10.550836550532098" refX="-1.0" refY="3.8990363547948754"><path id="ProcessOnPath1053" d="M12.0 3.8990363547948754L0.0 7.798072709589751V0.0Z" stroke="#cc0000" stroke-width="2.0" fill="#cc0000" transform="matrix(1.0,0.0,0.0,1.0,0.0,0.0)"/></marker><marker id="ProcessOnMarker1071" markerUnits="userSpaceOnUse" orient="auto" markerWidth="16.23606797749979" markerHeight="10.550836550532098" viewBox="-1.0 -1.3763819204711736 16.23606797749979 10.550836550532098" refX="-1.0" refY="3.8990363547948754"><path id="ProcessOnPath1072" d="M12.0 3.8990363547948754L0.0 7.798072709589751V0.0Z" stroke="#323232" stroke-width="2.0" fill="#323232" transform="matrix(1.0,0.0,0.0,1.0,0.0,0.0)"/></marker><marker id="ProcessOnMarker1078" markerUnits="userSpaceOnUse" orient="auto" markerWidth="16.23606797749979" markerHeight="10.550836550532098" viewBox="-1.0 -1.3763819204711736 16.23606797749979 10.550836550532098" refX="-1.0" refY="3.8990363547948754"><path id="ProcessOnPath1079" d="M12.0 3.8990363547948754L0.0 7.798072709589751V0.0Z" stroke="#323232" stroke-width="2.0" fill="#323232" transform="matrix(1.0,0.0,0.0,1.0,0.0,0.0)"/></marker><marker id="ProcessOnMarker1082" markerUnits="userSpaceOnUse" orient="auto" markerWidth="16.23606797749979" markerHeight="10.550836550532098" viewBox="-1.0 -1.3763819204711736 16.23606797749979 10.550836550532098" refX="-1.0" refY="3.8990363547948754"><path id="ProcessOnPath1083" d="M12.0 3.8990363547948754L0.0 7.798072709589751V0.0Z" stroke="#3333ff" stroke-width="2.0" fill="#3333ff" transform="matrix(1.0,0.0,0.0,1.0,0.0,0.0)"/></marker><marker id="ProcessOnMarker1089" markerUnits="userSpaceOnUse" orient="auto" markerWidth="16.23606797749979" markerHeight="10.550836550532098" viewBox="-1.0 -1.3763819204711736 16.23606797749979 10.550836550532098" refX="-1.0" refY="3.8990363547948754"><path id="ProcessOnPath1090" d="M12.0 3.8990363547948754L0.0 7.798072709589751V0.0Z" stroke="#3333ff" stroke-width="2.0" fill="#3333ff" transform="matrix(1.0,0.0,0.0,1.0,0.0,0.0)"/></marker><marker id="ProcessOnMarker1096" markerUnits="userSpaceOnUse" orient="auto" markerWidth="16.23606797749979" markerHeight="10.550836550532098" viewBox="-1.0 -1.3763819204711736 16.23606797749979 10.550836550532098" refX="-1.0" refY="3.8990363547948754"><path id="ProcessOnPath1097" d="M12.0 3.8990363547948754L0.0 7.798072709589751V0.0Z" stroke="#323232" stroke-width="2.0" fill="#323232" transform="matrix(1.0,0.0,0.0,1.0,0.0,0.0)"/></marker><marker id="ProcessOnMarker1104" markerUnits="userSpaceOnUse" orient="auto" markerWidth="16.23606797749979" markerHeight="10.550836550532098" viewBox="-1.0 -1.3763819204711736 16.23606797749979 10.550836550532098" refX="-1.0" refY="3.8990363547948754"><path id="ProcessOnPath1105" d="M12.0 3.8990363547948754L0.0 7.798072709589751V0.0Z" stroke="#00cc66" stroke-width="2.0" fill="#00cc66" transform="matrix(1.0,0.0,0.0,1.0,0.0,0.0)"/></marker><marker id="ProcessOnMarker1111" markerUnits="userSpaceOnUse" orient="auto" markerWidth="16.23606797749979" markerHeight="10.550836550532098" viewBox="-1.0 -1.3763819204711736 16.23606797749979 10.550836550532098" refX="-1.0" refY="3.8990363547948754"><path id="ProcessOnPath1112" d="M12.0 3.8990363547948754L0.0 7.798072709589751V0.0Z" stroke="#3333ff" stroke-width="2.0" fill="#3333ff" transform="matrix(1.0,0.0,0.0,1.0,0.0,0.0)"/></marker><marker id="ProcessOnMarker1118" markerUnits="userSpaceOnUse" orient="auto" markerWidth="16.23606797749979" markerHeight="10.550836550532098" viewBox="-1.0 -1.3763819204711736 16.23606797749979 10.550836550532098" refX="-1.0" refY="3.8990363547948754"><path id="ProcessOnPath1119" d="M12.0 3.8990363547948754L0.0 7.798072709589751V0.0Z" stroke="#cc0000" stroke-width="2.0" fill="#cc0000" transform="matrix(1.0,0.0,0.0,1.0,0.0,0.0)"/></marker><marker id="ProcessOnMarker1125" markerUnits="userSpaceOnUse" orient="auto" markerWidth="16.23606797749979" markerHeight="10.550836550532098" viewBox="-1.0 -1.3763819204711736 16.23606797749979 10.550836550532098" refX="-1.0" refY="3.8990363547948754"><path id="ProcessOnPath1126" d="M12.0 3.8990363547948754L0.0 7.798072709589751V0.0Z" stroke="#3333ff" stroke-width="2.0" fill="#3333ff" transform="matrix(1.0,0.0,0.0,1.0,0.0,0.0)"/></marker><marker id="ProcessOnMarker1136" markerUnits="userSpaceOnUse" orient="auto" markerWidth="16.23606797749979" markerHeight="10.550836550532098" viewBox="-1.0 -1.3763819204711736 16.23606797749979 10.550836550532098" refX="-1.0" refY="3.8990363547948754"><path id="ProcessOnPath1137" d="M12.0 3.8990363547948754L0.0 7.798072709589751V0.0Z" stroke="#cc0000" stroke-width="2.0" fill="#cc0000" transform="matrix(1.0,0.0,0.0,1.0,0.0,0.0)"/></marker><marker id="ProcessOnMarker1143" markerUnits="userSpaceOnUse" orient="auto" markerWidth="16.23606797749979" markerHeight="10.550836550532098" viewBox="-1.0 -1.3763819204711736 16.23606797749979 10.550836550532098" refX="-1.0" refY="3.8990363547948754"><path id="ProcessOnPath1144" d="M12.0 3.8990363547948754L0.0 7.798072709589751V0.0Z" stroke="#323232" stroke-width="2.0" fill="#323232" transform="matrix(1.0,0.0,0.0,1.0,0.0,0.0)"/></marker><marker id="ProcessOnMarker1147" markerUnits="userSpaceOnUse" orient="auto" markerWidth="16.23606797749979" markerHeight="10.550836550532098" viewBox="-1.0 -1.3763819204711736 16.23606797749979 10.550836550532098" refX="-1.0" refY="3.8990363547948754"><path id="ProcessOnPath1148" d="M12.0 3.8990363547948754L0.0 7.798072709589751V0.0Z" stroke="#3333ff" stroke-width="2.0" fill="#3333ff" transform="matrix(1.0,0.0,0.0,1.0,0.0,0.0)"/></marker><marker id="ProcessOnMarker1154" markerUnits="userSpaceOnUse" orient="auto" markerWidth="16.23606797749979" markerHeight="10.550836550532098" viewBox="-1.0 -1.3763819204711736 16.23606797749979 10.550836550532098" refX="-1.0" refY="3.8990363547948754"><path id="ProcessOnPath1155" d="M12.0 3.8990363547948754L0.0 7.798072709589751V0.0Z" stroke="#3333ff" stroke-width="2.0" fill="#3333ff" transform="matrix(1.0,0.0,0.0,1.0,0.0,0.0)"/></marker><marker id="ProcessOnMarker1161" markerUnits="userSpaceOnUse" orient="auto" markerWidth="16.23606797749979" markerHeight="10.550836550532098" viewBox="-1.0 -1.3763819204711736 16.23606797749979 10.550836550532098" refX="-1.0" refY="3.8990363547948754"><path id="ProcessOnPath1162" d="M12.0 3.8990363547948754L0.0 7.798072709589751V0.0Z" stroke="#3333ff" stroke-width="2.0" fill="#3333ff" transform="matrix(1.0,0.0,0.0,1.0,0.0,0.0)"/></marker><marker id="ProcessOnMarker1168" markerUnits="userSpaceOnUse" orient="auto" markerWidth="16.23606797749979" markerHeight="10.550836550532098" viewBox="-1.0 -1.3763819204711736 16.23606797749979 10.550836550532098" refX="-1.0" refY="3.8990363547948754"><path id="ProcessOnPath1169" d="M12.0 3.8990363547948754L0.0 7.798072709589751V0.0Z" stroke="#3333ff" stroke-width="2.0" fill="#3333ff" transform="matrix(1.0,0.0,0.0,1.0,0.0,0.0)"/></marker></defs><g id="ProcessOnG1002"><path id="ProcessOnPath1003" d="M24.333328247070312 83.66666412353516H1186.3333282470703V932.6666669845581H24.333328247070312V83.66666412353516Z" fill="none"/><g id="ProcessOnG1004"><g id="ProcessOnG1005" transform="matrix(1.0,0.0,0.0,1.0,333.8333282470703,103.66666412353516)" opacity="1.0"><path id="ProcessOnPath1006" d="M18.0 0.0L114.0 0.0C138.0 0.0 138.0 54.0 114.0 54.0L18.0 54.0C-6.0 54.0 -6.0 0.0 18.0 0.0Z" stroke="#323232" stroke-width="2.0" stroke-dasharray="none" opacity="1.0" fill="#ffffff"/><g id="ProcessOnG1007" transform="matrix(1.0,0.0,0.0,1.0,10.0,18.875)"><text id="ProcessOnText1008" fill="#000000" font-weight="normal" font-style="normal" text-decoration="blink" font-family="微软雅黑" text-anchor="middle" font-size="13" x="56.0" y="13.325">Index.js start</text></g></g><g id="ProcessOnG1009" transform="matrix(1.0,0.0,0.0,1.0,288.3333282470703,221.66666412353516)" opacity="1.0"><path id="ProcessOnPath1010" d="M0.0 0.0L223.0 0.0L223.0 74.0L0.0 74.0Z" stroke="#323232" stroke-width="2.0" stroke-dasharray="none" opacity="1.0" fill="#ffffff"/><g id="ProcessOnG1011" transform="matrix(1.0,0.0,0.0,1.0,10.0,28.875)"><text id="ProcessOnText1012" fill="#000000" font-weight="normal" font-style="normal" text-decoration="blink" font-family="微软雅黑" text-anchor="middle" font-size="13" x="101.5" y="13.325">master</text></g></g><g id="ProcessOnG1013" transform="matrix(1.0,0.0,0.0,1.0,318.3333282470703,504.0)" opacity="1.0"><path id="ProcessOnPath1014" d="M0.0 0.0L163.0 0.0L163.0 136.6666669845581L0.0 136.6666669845581Z" stroke="#323232" stroke-width="2.0" stroke-dasharray="none" opacity="1.0" fill="#ffffff"/><g id="ProcessOnG1015" transform="matrix(1.0,0.0,0.0,1.0,10.0,60.20833349227905)"><text id="ProcessOnText1016" fill="#000000" font-weight="normal" font-style="normal" text-decoration="blink" font-family="微软雅黑" text-anchor="middle" font-size="13" x="71.5" y="13.325">worker</text></g></g><g id="ProcessOnG1017"><path id="ProcessOnPath1018" d="M399.8333282470703 157.66666412353516L399.8333282470703 189.66666412353516L399.8333282470703 189.66666412353516L399.8333282470703 206.43059614603536" stroke="#323232" stroke-width="2.0" stroke-dasharray="none" fill="none" marker-end="url(#ProcessOnMarker1019)"/></g><g id="ProcessOnG1021"><path id="ProcessOnPath1022" d="M399.8333282470703 295.66666412353516L399.8333282470703 399.8333320617676L399.8333282470703 399.8333320617676L399.8333282470703 488.7639320225002" stroke="#323232" stroke-width="2.0" stroke-dasharray="none" fill="none" marker-end="url(#ProcessOnMarker1023)"/><g id="ProcessOnG1025" transform="matrix(1.0,0.0,0.0,1.0,399.8333282470703,384.0902980730177)"><path id="ProcessOnPath1026" d="M0 0H25.0V16.25H0Z" fill="#fff" transform="matrix(1.0,0.0,0.0,1.0,-12.5,0.0)"/><text id="ProcessOnText1027" fill="#000000" font-weight="normal" font-style="normal" text-decoration="blink" font-family="微软雅黑" text-anchor="middle" font-size="13" x="0.0" y="13.325">fork</text></g></g><g id="ProcessOnG1028" transform="matrix(1.0,0.0,0.0,1.0,323.5833282470703,813.6666669845581)" opacity="1.0"><path id="ProcessOnPath1029" d="M0.0 49.5L76.25 0.0L152.5 49.5L76.25 99.0L0.0 49.5Z" stroke="#cc0000" stroke-width="2.0" stroke-dasharray="none" opacity="1.0" fill="#ffffff"/><g id="ProcessOnG1030" transform="matrix(1.0,0.0,0.0,1.0,10.0,41.375)"><text id="ProcessOnText1031" fill="#cc0000" font-weight="normal" font-style="normal" text-decoration="blink" font-family="微软雅黑" text-anchor="middle" font-size="13" x="66.25" y="13.325">worker done</text></g></g><g id="ProcessOnG1032"><path id="ProcessOnPath1033" d="M399.8333282470703 640.6666669845581L399.8333282470703 727.1666669845581L399.8333282470703 727.1666669845581L399.8333282470703 798.4305990070583" stroke="#cc0000" stroke-width="2.0" stroke-dasharray="none" fill="none" marker-end="url(#ProcessOnMarker1034)"/><g id="ProcessOnG1036" transform="matrix(1.0,0.0,0.0,1.0,399.8333282470703,711.4236329958082)"><path id="ProcessOnPath1037" d="M0 0H32.0V16.25H0Z" fill="#fff" transform="matrix(1.0,0.0,0.0,1.0,-16.0,0.0)"/><text id="ProcessOnText1038" fill="#cc0000" font-weight="normal" font-style="normal" text-decoration="blink" font-family="微软雅黑" text-anchor="middle" font-size="13" x="0.0" y="13.325">1.run</text></g></g><g id="ProcessOnG1039"><path id="ProcessOnPath1040" d="M323.5833282470703 863.1666669845581L140.3333282470703 863.1666669845581L140.3333282470703 666.0694014697789" stroke="#cc0000" stroke-width="2.0" stroke-dasharray="none" fill="none" marker-end="url(#ProcessOnMarker1041)"/><g id="ProcessOnG1043" transform="matrix(1.0,0.0,0.0,1.0,140.3333282470703,848.1180342271684)"><path id="ProcessOnPath1044" d="M0 0H36.0V16.25H0Z" fill="#fff" transform="matrix(1.0,0.0,0.0,1.0,-18.0,0.0)"/><text id="ProcessOnText1045" fill="#cc0000" font-weight="normal" font-style="normal" text-decoration="blink" font-family="微软雅黑" text-anchor="middle" font-size="13" x="0.0" y="13.325">2.true</text></g></g><g id="ProcessOnG1046" transform="matrix(1.0,0.0,0.0,1.0,663.8333282470703,223.66666412353516)" opacity="1.0"><path id="ProcessOnPath1047" d="M0.0 35.0L90.5 0.0L181.0 35.0L90.5 70.0L0.0 35.0Z" stroke="#cc0000" stroke-width="2.0" stroke-dasharray="none" opacity="1.0" fill="#ffffff"/><g id="ProcessOnG1048" transform="matrix(1.0,0.0,0.0,1.0,10.0,26.875)"><text id="ProcessOnText1049" fill="#cc0000" font-weight="normal" font-style="normal" text-decoration="blink" font-family="微软雅黑" text-anchor="middle" font-size="13" x="80.5" y="13.325">task.length &gt; 0</text></g></g><g id="ProcessOnG1050"><path id="ProcessOnPath1051" d="M511.3333282470703 258.66666412353516L587.5833282470703 258.66666412353516L587.5833282470703 258.66666412353516L648.5972602695705 258.66666412353516" stroke="#cc0000" stroke-width="2.0" stroke-dasharray="none" fill="none" marker-end="url(#ProcessOnMarker1052)"/><g id="ProcessOnG1054" transform="matrix(1.0,0.0,0.0,1.0,579.9652942583205,250.54166412353516)"><path id="ProcessOnPath1055" d="M0 0H8.0V16.25H0Z" fill="#fff" transform="matrix(1.0,0.0,0.0,1.0,-4.0,0.0)"/><text id="ProcessOnText1056" fill="#cc0000" font-weight="normal" font-style="normal" text-decoration="blink" font-family="微软雅黑" text-anchor="middle" font-size="13" x="0.0" y="13.325">4</text></g></g><g id="ProcessOnG1057" transform="matrix(1.0,0.0,0.0,1.0,1002.3333282470703,149.0)" opacity="1.0"><path id="ProcessOnPath1058" d="M14.333333333333334 0.0L149.66666666666666 0.0C168.77777777777777 0.0 168.77777777777777 43.0 149.66666666666666 43.0L14.333333333333334 43.0C-4.777777777777778 43.0 -4.777777777777778 0.0 14.333333333333334 0.0Z" stroke="#323232" stroke-width="2.0" stroke-dasharray="none" opacity="1.0" fill="#ffffff"/><g id="ProcessOnG1059" transform="matrix(1.0,0.0,0.0,1.0,10.0,13.375)"><text id="ProcessOnText1060" fill="#000000" font-weight="normal" font-style="normal" text-decoration="blink" font-family="微软雅黑" text-anchor="middle" font-size="13" x="72.0" y="13.325">index.js push task</text></g></g><g id="ProcessOnG1061" transform="matrix(1.0,0.0,0.0,1.0,1018.3333282470703,254.0)" opacity="1.0"><path id="ProcessOnPath1062" d="M0.0 0.0L132.0 0.0L132.0 63.0L0.0 63.0Z" stroke="#323232" stroke-width="2.0" stroke-dasharray="none" opacity="1.0" fill="#ffffff"/><g id="ProcessOnG1063" transform="matrix(1.0,0.0,0.0,1.0,10.0,23.375)"><text id="ProcessOnText1064" fill="#000000" font-weight="normal" font-style="normal" text-decoration="blink" font-family="微软雅黑" text-anchor="middle" font-size="13" x="56.0" y="13.325">master.client</text></g></g><g id="ProcessOnG1065" transform="matrix(1.0,0.0,0.0,1.0,800.3333282470703,401.6666669845581)" opacity="1.0"><path id="ProcessOnPath1066" d="M15.0 0.0L88.33333333333333 0.0C103.18181818181819 0.0 103.18181818181819 70.0 88.33333333333333 70.0L15.0 70.0C-5.0 70.0 -5.0 0.0 15.0 0.0ZM88.33333333333333 0.0C73.75 0.0 73.75 70.0 88.33333333333333 70.0C73.75 70.0 73.75 0.0 88.33333333333333 0.0" stroke="#323232" stroke-width="2.0" stroke-dasharray="none" opacity="1.0" fill="#ffcc99"/><g id="ProcessOnG1067" transform="matrix(1.0,0.0,0.0,1.0,0.0,26.875)"><text id="ProcessOnText1068" fill="#000000" font-weight="normal" font-style="normal" text-decoration="blink" font-family="微软雅黑" text-anchor="middle" font-size="13" x="40.0" y="13.325">socket</text></g></g><g id="ProcessOnG1069"><path id="ProcessOnPath1070" d="M435.3333282470703 295.0L435.3333282470703 436.6666669845581L785.0972602695705 436.6666669845581" stroke="#323232" stroke-width="2.0" stroke-dasharray="none" fill="none" marker-end="url(#ProcessOnMarker1071)"/><g id="ProcessOnG1073" transform="matrix(1.0,0.0,0.0,1.0,539.3819607660414,428.5416669845581)"><path id="ProcessOnPath1074" d="M0 0H32.0V16.25H0Z" fill="#fff" transform="matrix(1.0,0.0,0.0,1.0,-16.0,0.0)"/><text id="ProcessOnText1075" fill="#000000" font-weight="normal" font-style="normal" text-decoration="blink" font-family="微软雅黑" text-anchor="middle" font-size="13" x="0.0" y="13.325">listen</text></g></g><g id="ProcessOnG1076"><path id="ProcessOnPath1077" d="M1084.3333282470703 192.0L1084.3333282470703 223.0L1084.3333282470703 223.0L1084.3333282470703 238.7639320225002" stroke="#323232" stroke-width="2.0" stroke-dasharray="none" fill="none" marker-end="url(#ProcessOnMarker1078)"/></g><g id="ProcessOnG1080"><path id="ProcessOnPath1081" d="M1084.3333282470703 317.0L1084.3333282470703 436.6666669845581L915.5693962245701 436.6666669845581" stroke="#3333ff" stroke-width="2.0" stroke-dasharray="none" fill="none" marker-end="url(#ProcessOnMarker1082)"/><g id="ProcessOnG1084" transform="matrix(1.0,0.0,0.0,1.0,1059.7846957280992,428.5416669845581)"><path id="ProcessOnPath1085" d="M0 0H61.0V16.25H0Z" fill="#fff" transform="matrix(1.0,0.0,0.0,1.0,-30.5,0.0)"/><text id="ProcessOnText1086" fill="#3333ff" font-weight="normal" font-style="normal" text-decoration="blink" font-family="微软雅黑" text-anchor="middle" font-size="13" x="0.0" y="13.325">1.connect</text></g></g><g id="ProcessOnG1087"><path id="ProcessOnPath1088" d="M803.1629573785157 417.2940952255126L467.3333282470703 417.2940952255126L467.3333282470703 310.2360679774998" stroke="#3333ff" stroke-width="2.0" stroke-dasharray="none" fill="none" marker-end="url(#ProcessOnMarker1089)"/><g id="ProcessOnG1091" transform="matrix(1.0,0.0,0.0,1.0,581.7191291887866,409.1690952255126)"><path id="ProcessOnPath1092" d="M0 0H36.0V16.25H0Z" fill="#fff" transform="matrix(1.0,0.0,0.0,1.0,-18.0,0.0)"/><text id="ProcessOnText1093" fill="#3333ff" font-weight="normal" font-style="normal" text-decoration="blink" font-family="微软雅黑" text-anchor="middle" font-size="13" x="0.0" y="13.325">2.task</text></g></g><g id="ProcessOnG1094"><path id="ProcessOnPath1095" d="M481.3333282470703 572.333333492279L563.7083282470703 572.333333492279L563.7083282470703 572.333333492279L630.8472602695705 572.333333492279" stroke="#323232" stroke-width="2.0" stroke-dasharray="10.0 4.0" fill="none" marker-end="url(#ProcessOnMarker1096)"/></g><g id="ProcessOnG1098" transform="matrix(1.0,0.0,0.0,1.0,648.3333282470703,504.0)" opacity="1.0"><path id="ProcessOnPath1099" d="M0.0 0.0L212.0 0.0L212.0 170.16666650772095L0.0 170.16666650772095Z" stroke="#00cc66" stroke-width="2.0" stroke-dasharray="none" opacity="1.0" fill="#ffffff"/><g id="ProcessOnG1100" transform="matrix(1.0,0.0,0.0,1.0,10.0,76.95833325386047)"><text id="ProcessOnText1101" fill="#00cc66" font-weight="normal" font-style="normal" text-decoration="blink" font-family="微软雅黑" text-anchor="middle" font-size="13" x="96.0" y="13.325">IPC(master -&gt; worker)</text></g></g><g id="ProcessOnG1102"><path id="ProcessOnPath1103" d="M648.3333282470703 528.0L564.8333282470703 528.0L564.8333282470703 528.0L496.5693962245701 528.0" stroke="#00cc66" stroke-width="2.0" stroke-dasharray="none" fill="none" marker-end="url(#ProcessOnMarker1104)"/><g id="ProcessOnG1106" transform="matrix(1.0,0.0,0.0,1.0,572.4513622358202,519.875)"><path id="ProcessOnPath1107" d="M0 0H52.0V16.25H0Z" fill="#fff" transform="matrix(1.0,0.0,0.0,1.0,-26.0,0.0)"/><text id="ProcessOnText1108" fill="#00cc66" font-weight="normal" font-style="normal" text-decoration="blink" font-family="微软雅黑" text-anchor="middle" font-size="13" x="0.0" y="13.325">dispatch</text></g></g><g id="ProcessOnG1109"><path id="ProcessOnPath1110" d="M511.3333282470703 279.0L667.3333282470703 279.0L667.3333282470703 488.7639320225002" stroke="#3333ff" stroke-width="2.0" stroke-dasharray="2.0 3.0" fill="none" marker-end="url(#ProcessOnMarker1111)"/><g id="ProcessOnG1113" transform="matrix(1.0,0.0,0.0,1.0,667.3333282470703,297.75696601125014)"><path id="ProcessOnPath1114" d="M0 0H8.0V16.25H0Z" fill="#fff" transform="matrix(1.0,0.0,0.0,1.0,-4.0,0.0)"/><text id="ProcessOnText1115" fill="#3333ff" font-weight="normal" font-style="normal" text-decoration="blink" font-family="微软雅黑" text-anchor="middle" font-size="13" x="0.0" y="13.325">3</text></g></g><g id="ProcessOnG1116"><path id="ProcessOnPath1117" d="M754.3333282470703 293.66666412353516L754.3333282470703 398.8333320617676L754.3333282470703 398.8333320617676L754.3333282470703 488.7639320225002" stroke="#cc0000" stroke-width="2.0" stroke-dasharray="none" fill="none" marker-end="url(#ProcessOnMarker1118)"/><g id="ProcessOnG1120" transform="matrix(1.0,0.0,0.0,1.0,754.3333282470703,383.0902980730177)"><path id="ProcessOnPath1121" d="M0 0H36.0V16.25H0Z" fill="#fff" transform="matrix(1.0,0.0,0.0,1.0,-18.0,0.0)"/><text id="ProcessOnText1122" fill="#cc0000" font-weight="normal" font-style="normal" text-decoration="blink" font-family="微软雅黑" text-anchor="middle" font-size="13" x="0.0" y="13.325">5.true</text></g></g><g id="ProcessOnG1123"><path id="ProcessOnPath1124" d="M648.3333282470703 618.0L564.8333282470703 618.0L564.8333282470703 618.0L496.5693962245701 618.0" stroke="#3333ff" stroke-width="2.0" stroke-dasharray="none" fill="none" marker-end="url(#ProcessOnMarker1125)"/><g id="ProcessOnG1127" transform="matrix(1.0,0.0,0.0,1.0,572.4513622358202,609.875)"><path id="ProcessOnPath1128" d="M0 0H72.0V16.25H0Z" fill="#fff" transform="matrix(1.0,0.0,0.0,1.0,-36.0,0.0)"/><text id="ProcessOnText1129" fill="#3333ff" font-weight="normal" font-style="normal" text-decoration="blink" font-family="微软雅黑" text-anchor="middle" font-size="13" x="0.0" y="13.325">4.broadcast</text></g></g><g id="ProcessOnG1130" transform="matrix(1.0,0.0,0.0,1.0,44.33332824707031,493.83333349227905)" opacity="1.0"><path id="ProcessOnPath1131" d="M0.0 0.0L192.0 0.0L192.0 157.0L0.0 157.0Z" stroke="#cc0000" stroke-width="2.0" stroke-dasharray="none" opacity="1.0" fill="#ffffff"/><g id="ProcessOnG1132" transform="matrix(1.0,0.0,0.0,1.0,10.0,70.375)"><text id="ProcessOnText1133" fill="#cc0000" font-weight="normal" font-style="normal" text-decoration="blink" font-family="微软雅黑" text-anchor="middle" font-size="13" x="86.0" y="13.325">IPC(worker -&gt; master)</text></g></g><g id="ProcessOnG1134"><path id="ProcessOnPath1135" d="M140.3333282470703 493.83333349227905L140.3333282470703 258.66666412353516L273.09726026957054 258.66666412353516" stroke="#cc0000" stroke-width="2.0" stroke-dasharray="2.0 3.0" fill="none" marker-end="url(#ProcessOnMarker1136)"/><g id="ProcessOnG1138" transform="matrix(1.0,0.0,0.0,1.0,140.3333282470703,301.74303279665696)"><path id="ProcessOnPath1139" d="M0 0H8.0V16.25H0Z" fill="#fff" transform="matrix(1.0,0.0,0.0,1.0,-4.0,0.0)"/><text id="ProcessOnText1140" fill="#cc0000" font-weight="normal" font-style="normal" text-decoration="blink" font-family="微软雅黑" text-anchor="middle" font-size="13" x="0.0" y="13.325">3</text></g></g><g id="ProcessOnG1141"><path id="ProcessOnPath1142" d="M318.3333282470703 572.333333492279L277.3333282470703 572.333333492279L277.3333282470703 572.333333492279L251.5693962245701 572.333333492279" stroke="#323232" stroke-width="2.0" stroke-dasharray="10.0 4.0" fill="none" marker-end="url(#ProcessOnMarker1143)"/></g><g id="ProcessOnG1145"><path id="ProcessOnPath1146" d="M378.3333282470703 827.862820360939L378.3333282470703 824.2647441495858L187.3333282470703 824.2647441495858L187.3333282470703 665.9027359157323" stroke="#3333ff" stroke-width="2.0" stroke-dasharray="none" fill="none" marker-end="url(#ProcessOnMarker1147)"/><g id="ProcessOnG1149" transform="matrix(1.0,0.0,0.0,1.0,205.45136223582017,816.1397441495858)"><path id="ProcessOnPath1150" d="M0 0H36.0V16.25H0Z" fill="#fff" transform="matrix(1.0,0.0,0.0,1.0,-18.0,0.0)"/><text id="ProcessOnText1151" fill="#3333ff" font-weight="normal" font-style="normal" text-decoration="blink" font-family="微软雅黑" text-anchor="middle" font-size="13" x="0.0" y="13.325">6.true</text></g></g><g id="ProcessOnG1152"><path id="ProcessOnPath1153" d="M171.3333282470703 494.3333339691162L171.3333282470703 273.3333339691162L273.09726026957054 273.3333339691162" stroke="#3333ff" stroke-width="2.0" stroke-dasharray="2.0 3.0" fill="none" marker-end="url(#ProcessOnMarker1154)"/><g id="ProcessOnG1156" transform="matrix(1.0,0.0,0.0,1.0,171.3333282470703,324.82636795786607)"><path id="ProcessOnPath1157" d="M0 0H8.0V16.25H0Z" fill="#fff" transform="matrix(1.0,0.0,0.0,1.0,-4.0,0.0)"/><text id="ProcessOnText1158" fill="#3333ff" font-weight="normal" font-style="normal" text-decoration="blink" font-family="微软雅黑" text-anchor="middle" font-size="13" x="0.0" y="13.325">7</text></g></g><g id="ProcessOnG1159"><path id="ProcessOnPath1160" d="M510.3333282470703 235.3333339691162L642.3333282470703 235.3333339691162L642.3333282470703 193.66666412353516L754.3333282470703 193.66666412353516L754.3333282470703 208.43059614603536" stroke="#3333ff" stroke-width="2.0" stroke-dasharray="2.0 3.0" fill="none" marker-end="url(#ProcessOnMarker1161)"/><g id="ProcessOnG1163" transform="matrix(1.0,0.0,0.0,1.0,642.3333282470703,208.9930330350756)"><path id="ProcessOnPath1164" d="M0 0H8.0V16.25H0Z" fill="#fff" transform="matrix(1.0,0.0,0.0,1.0,-4.0,0.0)"/><text id="ProcessOnText1165" fill="#3333ff" font-weight="normal" font-style="normal" text-decoration="blink" font-family="微软雅黑" text-anchor="middle" font-size="13" x="0.0" y="13.325">8</text></g></g><g id="ProcessOnG1166"><path id="ProcessOnPath1167" d="M462.3333282470703 640.3333339691162L462.3333282470703 817.3333339691162L506.0833282470703 817.3333339691162L506.0833282470703 863.1666669845581L491.3193962245701 863.1666669845581" stroke="#3333ff" stroke-width="2.0" stroke-dasharray="2.0 3.0" fill="none" marker-end="url(#ProcessOnMarker1168)"/><g id="ProcessOnG1170" transform="matrix(1.0,0.0,0.0,1.0,462.3333282470703,772.8819664880873)"><path id="ProcessOnPath1171" d="M0 0H8.0V16.25H0Z" fill="#fff" transform="matrix(1.0,0.0,0.0,1.0,-4.0,0.0)"/><text id="ProcessOnText1172" fill="#3333ff" font-weight="normal" font-style="normal" text-decoration="blink" font-family="微软雅黑" text-anchor="middle" font-size="13" x="0.0" y="13.325">5</text></g></g></g></g></svg>